<svg width="25" height="11" viewBox="0 0 25 11" fill="none" xmlns="http://www.w3.org/2000/svg">
<path d="M6.5 2L2 9L5 7.5L7.5 9.5L6.5 2Z" stroke="black" stroke-opacity="0.5"/>
<path d="M10.32 9C10.2773 9 10.24 8.984 10.208 8.952C10.176 8.92 10.16 8.88267 10.16 8.84C10.16 8.81333 10.1627 8.784 10.168 8.752L12.152 3.576C12.1733 3.52267 12.2027 3.48 12.24 3.448C12.2773 3.416 12.3333 3.4 12.408 3.4H12.952C13.0213 3.4 13.0747 3.416 13.112 3.448C13.1547 3.48 13.1867 3.52267 13.208 3.576L15.184 8.752C15.1947 8.784 15.2 8.81333 15.2 8.84C15.2 8.88267 15.184 8.92 15.152 8.952C15.12 8.984 15.0827 9 15.04 9H14.632C14.568 9 14.52 8.984 14.488 8.952C14.4613 8.92 14.4427 8.89067 14.432 8.864L13.992 7.728H11.368L10.928 8.864C10.9227 8.89067 10.904 8.92 10.872 8.952C10.84 8.984 10.792 9 10.728 9H10.32ZM11.6 7.04H13.76L12.68 4.2L11.6 7.04ZM16.2394 9C16.1807 9 16.1354 8.984 16.1034 8.952C16.0714 8.91467 16.0554 8.86933 16.0554 8.816V3.584C16.0554 3.53067 16.0714 3.488 16.1034 3.456C16.1354 3.41867 16.1807 3.4 16.2394 3.4H16.6634C16.7167 3.4 16.7594 3.41867 16.7914 3.456C16.8234 3.488 16.8394 3.53067 16.8394 3.584V8.304H19.5034C19.562 8.304 19.6074 8.32267 19.6394 8.36C19.6714 8.392 19.6874 8.43733 19.6874 8.496V8.816C19.6874 8.86933 19.6714 8.91467 19.6394 8.952C19.6074 8.984 19.562 9 19.5034 9H16.2394ZM20.7472 9C20.6885 9 20.6432 8.984 20.6112 8.952C20.5792 8.91467 20.5632 8.86933 20.5632 8.816V3.584C20.5632 3.53067 20.5792 3.488 20.6112 3.456C20.6432 3.41867 20.6885 3.4 20.7472 3.4H21.1712C21.2245 3.4 21.2672 3.41867 21.2992 3.456C21.3312 3.488 21.3472 3.53067 21.3472 3.584V8.304H24.0112C24.0699 8.304 24.1152 8.32267 24.1472 8.36C24.1792 8.392 24.1952 8.43733 24.1952 8.496V8.816C24.1952 8.86933 24.1792 8.91467 24.1472 8.952C24.1152 8.984 24.0699 9 24.0112 9H20.7472Z" fill="black" fill-opacity="0.5"/>
</svg>
